<?xml version="1.0" encoding="UTF-8"?>
<svg width="191px" height="126px" viewBox="0 0 191 126" version="1.1" xmlns="http://www.w3.org/2000/svg" xmlns:xlink="http://www.w3.org/1999/xlink">
    <!-- Generator: Sketch 48.2 (47327) - http://www.bohemiancoding.com/sketch -->
    <title>Page 1</title>
    <desc>Created with Sketch.</desc>
    <defs>
        <polygon id="path-1" points="0.168882353 0.420619469 32.7560588 0.420619469 32.7560588 69.8010885 0.168882353 69.8010885"></polygon>
        <polygon id="path-3" points="0.31020121 0.112818644 58.7528556 0.112818644 58.7528556 73.7750052 0.31020121 73.7750052"></polygon>
    </defs>
    <g id="Header" stroke="none" stroke-width="1" fill="none" fill-rule="evenodd" transform="translate(-44.000000, -30.000000)">
        <g id="Group-2">
            <g id="Page-1" transform="translate(44.000000, 30.000000)">
                <path d="M25.639738,116.787167 C26.4061135,116.862285 28.279476,116.837246 28.6768559,116.71205 C29.7554585,116.387152 30.946906,115.460094 30.946906,113.657277 C30.946906,111.354288 29.1593886,110.477308 27.3137182,110.477308 C26.6906486,110.477308 26.0938865,110.502347 25.639738,110.577465 L25.639738,116.787167 Z M25.639738,124.249437 C25.639738,124.699531 25.4694323,124.824726 25.1004367,124.874804 C24.3049846,124.949922 23.3696879,124.949922 23,124.949922 C23.0574609,123.948968 23.0858451,122.471659 23.0858451,120.367762 L23.0858451,111.979656 C23.0858451,110.752739 23.0858451,110.1518 23.0290766,109.375587 C23.8224518,109.225352 25.8951965,109 27.2569496,109 C31.1455959,109 33.6447971,110.201878 33.6447971,113.507042 C33.6447971,116.061644 31.1739802,117.212833 30.1251464,117.639108 C30.8617531,118.13928 31.7984343,119.31673 32.849345,120.794038 C34.240867,122.821596 35.3464693,124.049124 36,124.649452 L36,124.799687 C35.7445415,124.924883 35.0626265,125 34.2976355,125 C33.4737991,125 32.7925764,124.72457 32.0829694,123.848811 C31.259133,122.846635 30.6644478,121.920188 29.5851528,120.317684 C28.5065502,118.765258 28.0800937,118.239437 26.349345,118.239437 L25.639738,118.239437 L25.639738,124.249437 Z" id="Fill-1" fill="#C35532"></path>
                <path d="M51.6225068,118.423622 C50.2304931,115.072441 49.320757,113.006914 48.9187503,112.099213 C48.0370763,114.114961 47.2069584,116.15652 46.1901946,118.423622 L51.6225068,118.423622 Z M45.5473753,120.086614 C44.6389444,122.026772 43.8623404,123.790551 43.4074724,124.697638 C43.3004446,124.899213 43.113146,125 42.7920627,125 C42.336542,125 41.4268059,124.874016 41,124.697638 L41.0267569,124.546457 C42.5780071,121.447244 46.9929029,111.948031 47.9032916,109.982677 L47.5554513,109.251969 C48.197618,109.125984 49.1869723,109 49.5080556,109 C49.829139,109 50.0164376,109.176378 50.1234654,109.428346 C51.3549374,112.099213 53.6821389,117.440945 54.7263124,119.733858 C55.8494514,122.127559 56.518375,123.689764 57,124.59685 L57,124.722835 C56.4381042,124.899213 55.3136599,125 54.886854,125 C54.5390137,125 54.3249582,124.848819 54.0567361,124.269906 C53.4680834,122.933858 53.0667292,122.001575 52.2098544,120.086614 L45.5473753,120.086614 Z" id="Fill-3" fill="#C35532"></path>
                <path d="M65.8288837,118.348031 C65.8288837,117.869906 65.8022678,117.516535 65.6159564,117.23937 C64.2845119,115.173228 61.5430734,111.419512 60,109.453543 L60,109.352756 C60.6381326,109.176378 61.5430734,109 62.1026567,109 C62.4752794,109 62.7946703,109.327559 63.4074853,110.234646 C64.3643596,111.645669 65.9885791,113.938583 67.3453412,115.903937 C68.3573949,114.518725 71.6038864,109.882504 72.1634696,109 C72.8820991,109 73.4150664,109.100787 73.7344573,109.201575 C74.1057816,109.352756 74.0791657,109.629921 73.7078414,110.159055 C73.0417945,111.116535 68.9163289,116.634646 68.5437062,117.113386 C68.3307789,117.415748 68.276898,117.794315 68.276898,118.12126 L68.276898,121.774803 C68.276898,123.488189 68.3307789,124.269906 68.3573949,124.798425 C67.9042753,124.924409 67.1603282,125 66.2281223,125 C65.9087314,125 65.8288837,124.924409 65.8288837,124.546457 L65.8288837,118.348031 Z" id="Fill-5" fill="#C35532"></path>
                <path d="M94.4024675,115.828346 L94.4024675,109.730709 C94.4024675,109.226772 94.5665222,109.125984 94.9766589,109.100787 C95.4694898,109.025197 96.3977993,109 97,109 C96.9453151,109.956866 96.9173058,111.444094 96.9173058,113.56063 L96.9173058,121.699213 C96.9173058,123.462992 96.9726576,124.294488 97,124.798425 C96.5071691,124.899213 95.2774258,125 94.8399466,125 C94.5391797,125 94.4024675,124.924409 94.4024675,124.571654 L94.4024675,117.440945 C93.8556185,117.491339 92.9526509,117.516535 90.5745248,117.516535 L85.5975325,117.516535 L85.5975325,124.244094 C85.5975325,124.748031 85.4334778,124.823622 84.8872958,124.899213 C84.2037346,125 83.6568856,125 83,125 C83.0546849,123.992126 83.0820273,122.505512 83.0820273,120.388976 L83.0820273,112.401575 C83.0820273,110.713386 83.0546849,109.680315 83,109.201575 C83.5201734,109.100787 84.6412137,109 85.1067022,109 C85.4881627,109 85.5975325,109.176378 85.5975325,110.310236 L85.5975325,115.828346 L94.4024675,115.828346 Z" id="Fill-7" fill="#C35532"></path>
                <path d="M114.622507,118.423622 C113.230493,115.072441 112.320757,113.006914 111.91875,112.099213 C111.037076,114.114961 110.206958,116.15652 109.190195,118.423622 L114.622507,118.423622 Z M108.547375,120.086614 C107.638944,122.026772 106.86234,123.790551 106.407472,124.697638 C106.300445,124.899213 106.113146,125 105.792063,125 C105.336542,125 104.426806,124.874016 104,124.697638 L104.026757,124.546457 C105.578007,121.447244 109.992903,111.948031 110.903292,109.982677 L110.555451,109.251969 C111.197618,109.125984 112.186972,109 112.508056,109 C112.829139,109 113.016438,109.176378 113.123465,109.428346 C114.354937,112.099213 116.682139,117.440945 117.726312,119.733858 C118.849451,122.127559 119.518375,123.689764 120,124.59685 L120,124.722835 C119.438104,124.899213 118.31366,125 117.886854,125 C117.539014,125 117.324958,124.848819 117.056736,124.269906 C116.468083,122.933858 116.066729,122.001575 115.209854,120.086614 L108.547375,120.086614 Z" id="Fill-9" fill="#C35532"></path>
                <path d="M135.688991,109 C135.923051,109 136.053793,109.224649 136.184535,109.599064 C136.708142,111.046802 138.041713,115.664587 139.819806,121.730109 C142.199952,114.790952 143.559033,110.822153 144.134299,109 C144.369635,109 144.997835,109.049922 145.520804,109.174727 C145.990201,109.24961 146.120943,109.524181 145.885607,110.173167 C144.343487,114.54195 142.304546,119.932917 140.813447,123.75195 C140.60426,124.301701 140.473517,124.550702 140.212033,124.725429 C140.028994,124.850234 139.140585,125 138.643764,125 C137.963267,122.654275 136.551251,117.687036 135.03528,112.619345 C134.22404,115.215289 132.158951,121.605304 131.504602,123.75195 C131.321563,124.351014 131.164673,124.600624 130.824743,124.75039 C130.53711,124.875195 129.856613,125 129.333644,125 C127.713079,120.082683 125.960495,114.191888 124,109.474259 C124.470672,109.24961 125.569544,109 126.012792,109 C126.405019,109 126.561909,109.24961 126.980922,110.572543 C127.713079,112.944447 128.968841,116.687988 130.432516,121.680187 C131.164673,119.259579 132.628348,114.591872 134.119446,110.048362 C134.093298,109.824322 134.014853,109.549142 133.962556,109.349454 C134.511673,109.149766 135.087577,109 135.662842,109 L135.688991,109 Z" id="Fill-11" fill="#C35532"></path>
                <path d="M155.085193,112.508554 C155.085193,110.841369 155.056795,109.821151 155,109.348367 C155.482759,109.273717 156.789739,109.1493 157.2441,109.1493 C157.668679,109.1493 157.697076,109.323484 157.697076,110.318818 L157.697076,116.912908 C160.027062,114.822706 163.690348,111.363919 166.188641,109 C166.586207,109 167.069658,109.049767 167.609212,109.1493 C168.374561,109.273717 168.403651,109.572317 167.7512,110.194401 C165.989858,111.786936 162.496957,114.92224 160.481423,116.763608 C162.298174,118.654743 166.728887,122.909798 169,124.601866 L169,124.676516 C168.716024,124.825816 167.722802,125 166.785682,125 C166.217039,125 165.762677,124.825816 165.109533,124.229223 C163.66195,122.909798 158.578093,118.157076 157.697076,117.186625 L157.697076,121.690513 C157.697076,123.432348 157.754564,124.254106 157.782961,124.751166 C157.386088,124.8507 156.051403,124.950233 155.596349,124.950233 C155.227181,124.950233 155.085193,124.875583 155.085193,124.527216 L155.085193,112.508554 Z" id="Fill-13" fill="#C35532"></path>
                <path d="M12.5262261,121.016794 C12.5262261,119.745038 12.5262261,118.732824 12.4186992,118.006107 C12.9832153,117.876336 14.0053763,117.616794 14.5430108,117.616794 C14.8655914,117.616794 15,117.772519 15,118.317557 L15,124.338931 C14.5698925,124.650382 13.6827957,125.170099 13.0638605,125.403053 C12.2574089,125.662595 10.6182796,126 9.4079465,126 C4.67741935,126 0,123.845802 0,117.616794 C0,112.296183 4.24731183,109 9.48859166,109 C12.6068712,109 14.516129,110.038168 15,110.479389 C15,111.387786 14.3010753,111.9841 13.5752688,111.725191 C12.2842906,111.076336 10.7526882,110.79084 9.32730134,110.79084 C5.42945188,110.79084 2.66063467,113.308397 2.66063467,117.435115 C2.66063467,122.418321 6.28966693,124.39084 9.78429058,124.39084 C10.672043,124.39084 12.0154734,124.183206 12.5262261,123.89771 L12.5262261,121.016794 Z" id="Fill-15" fill="#C35532"></path>
                <path d="M12.5262261,121.016794 C12.5262261,119.745038 12.5262261,118.732824 12.4186992,118.006107 C12.9832153,117.876336 14.0053763,117.616794 14.5430108,117.616794 C14.8655914,117.616794 15,117.772519 15,118.317557 L15,124.338931 C14.5698925,124.650382 13.6827957,125.170099 13.0638605,125.403053 C12.2574089,125.662595 10.6182796,126 9.4079465,126 C4.67741935,126 0,123.845802 0,117.616794 C0,112.296183 4.24731183,109 9.48859166,109 C12.6068712,109 14.516129,110.038168 15,110.479389 C15,111.387786 14.3010753,111.9841 13.5752688,111.725191 C12.2842906,111.076336 10.7526882,110.79084 9.32730134,110.79084 C5.42945188,110.79084 2.66063467,113.308397 2.66063467,117.435115 C2.66063467,122.418321 6.28966693,124.39084 9.78429058,124.39084 C10.672043,124.39084 12.0154734,124.183206 12.5262261,123.89771 L12.5262261,121.016794 Z" id="Fill-17" fill="#C35532"></path>
                <g id="Group-21" transform="translate(158.000000, 0.000000)">
                    <mask id="mask-2" fill="white">
                        <use xlink:href="#path-1"></use>
                    </mask>
                    <g id="Clip-20"></g>
                    <path d="M30.8148824,5.37630973 C30.8148824,5.37630973 27.4197647,7.38958407 28.0131176,12.5516195 C28.0868824,13.1995841 31.4619412,48.7391416 31.4619412,48.7391416 L31.4612941,48.7391416 L29.5175294,47.7337434 L23.6972353,0.420557522 C23.6972353,0.420557522 20.4101765,2.8470177 21.1109412,7.38958407 C21.2138235,8.05675221 27.9865882,45.7650708 28.2195294,47.0634779 L26.2854706,46.0630354 L17.2266471,1.65949558 C17.2266471,1.65949558 14.1440588,4.37710619 15.1793529,8.88684071 C15.2356471,9.12967257 16.5452941,14.0686991 18.1836471,20.2355133 L11.4031176,7.21551327 C11.4031176,7.21551327 9.44382353,9.96409735 11.2432941,13.2745398 C11.5040588,13.7546283 19.1607059,25.6862212 19.9675882,26.9431239 C20.2484118,27.9986991 20.5292353,29.0542743 20.8061765,30.0962212 L7.52076471,12.190469 C7.52076471,12.190469 5.74329412,16.0689646 8.81682353,19.4178142 C11.7376471,22.6000265 20.3603529,32.1175487 21.7528235,33.6544513 C22.0161765,34.6431239 22.2717647,35.6039204 22.5157059,36.5188761 L3.63841176,17.7656903 C3.63841176,17.7656903 2.26535294,21.8907345 5.90505882,25.0958673 C6.51847059,25.6366637 21.7301765,37.8680796 23.1860588,39.0388761 C23.3995882,39.8410885 23.6001765,40.5943628 23.7807059,41.2733009 L0.403117647,24.5798496 C0.403117647,24.5798496 0.108705882,29.1484336 3.58664706,31.2391416 C5.36864706,32.3102035 24.1974118,43.1168407 24.2847647,43.1670177 C24.6387059,44.4951593 24.8502941,45.291177 24.86,45.3264867 L0.168882353,32.561708 L6.39941176,39.4340973 C14.6138235,42.8919735 31.4612941,49.9780796 31.4612941,49.9780796 L31.4619412,49.9780796 L31.4619412,51.8364867 L31.4612941,51.8364867 L10.9249412,44.4257788 L14.5038235,48.3730354 C22.7227647,50.6725044 31.4612941,53.1063982 31.4612941,53.1063982 L31.4619412,53.1063982 L31.4619412,54.9133894 L31.4612941,54.9133894 L17.5870588,51.7739204 L18.6624706,52.9595841 L19.8653529,54.3242743 L19.9449412,54.4196726 C26.1787059,55.3600265 31.4612941,56.1523274 31.4612941,56.1523274 L31.4619412,56.1523274 L31.4619412,58.031177 L31.4612941,58.031177 L22.0258824,56.9186106 L23.6765294,58.8996726 C28.1431765,59.1090531 31.4612941,59.270115 31.4612941,59.270115 L31.4619412,59.270115 L31.4619412,61.1272832 L31.4612941,61.1272832 L25.4462353,61.0256903 L26.7571765,62.5991416 C29.5621765,62.4597611 31.4612941,62.3674602 31.4612941,62.3674602 L31.4619412,62.3674602 L31.4619412,64.2258673 L31.4612941,64.2258673 L28.3275882,64.4841858 L29.4075294,65.781354 C30.6518235,65.5893186 31.4612941,65.4648053 31.4612941,65.4648053 L31.4619412,65.4648053 L31.4619412,68.2474602 L32.7560588,69.8010885 L32.7560588,49.9780796 L32.7560588,48.1196726 L30.8148824,5.37630973 Z" id="Fill-19" fill="#B1ACAA" mask="url(#mask-2)"></path>
                </g>
                <g id="Group-24" transform="translate(132.000000, 21.000000)">
                    <mask id="mask-4" fill="white">
                        <use xlink:href="#path-3"></use>
                    </mask>
                    <g id="Clip-23"></g>
                    <path d="M45.7921289,34.2782424 L44.5734511,32.8967 L14.7076511,0.112818644 C14.7076511,0.112818644 12.4833511,3.27161525 16.3648956,6.99356441 C16.8519733,7.46014068 43.64584,34.2663271 43.64584,34.2663271 L41.5447844,34.7429373 L5.56134,0.769411864 C5.56134,0.769411864 4.07322889,3.81908983 7.74761778,7.09829322 C8.26026222,7.55608983 38.1267178,33.3124797 40.1517289,35.058378 L37.9175956,35.5650898 L1.26089556,5.66658136 C1.26089556,5.66658136 -0.109215556,8.53690339 3.69104,11.4749542 C3.91589556,11.6486661 9.25670667,15.6396492 15.5552844,20.3449203 L0.326073333,13.5839542 C0.326073333,13.5839542 -0.110526667,16.9101915 3.59598444,18.2164797 C5.27486222,18.8084797 18.7163733,23.5081068 20.7328622,24.2129881 C21.7810956,24.9962593 22.8253956,25.7757678 23.8480622,26.5402254 L0.992117778,20.8165136 C0.992117778,20.8165136 1.59981778,24.5372085 6.24508444,25.3236153 C10.7802178,26.0918356 25.0896844,28.409039 26.7003844,28.6699203 C27.4365733,29.2192763 28.1478511,29.7510729 28.8329067,30.2621746 L2.00954,28.1280898 C2.00954,28.1280898 3.66547333,31.8857847 8.67654,31.9215305 C12.0998511,31.9459881 28.9318956,31.9478695 31.0893289,31.9478695 C31.7402956,32.4338864 32.3440622,32.8847847 32.8973511,33.2980559 L3.47405111,35.3982763 C3.47405111,35.3982763 5.95795111,38.8850559 10.3154289,38.2447678 C15.0859067,37.5442763 32.5328622,34.8388864 34.5434511,34.5265814 C35.5418622,35.2722254 36.2347844,35.7921068 36.3921178,35.9106322 L7.55422889,42.4464627 C7.55422889,42.4464627 11.1492956,45.3481407 14.7260067,44.3591746 C19.9704511,42.9092763 44.4646289,35.2458864 44.4646289,35.2458864 L45.69314,36.7152254 L11.3407178,49.2989881 C11.3407178,49.2989881 15.3291178,51.8482254 19.1510067,50.3951915 C22.1954067,49.2381576 46.5322511,37.7192424 46.5322511,37.7192424 L46.5329067,37.7186153 L47.7719067,39.1998695 L14.0212844,56.1703271 C14.0212844,56.1703271 18.1539067,58.152022 21.60934,56.444378 C24.5350844,54.9994966 48.5847956,40.1719034 48.5847956,40.1719034 L49.9863733,41.8475644 L17.3501956,63.0065475 C17.3501956,63.0065475 21.5450956,64.8019881 24.9965956,62.3104458 C29.4451956,59.0995983 50.2630178,43.235378 50.8031956,42.8239881 L52.3017956,44.6162932 L22.7073956,68.4907 C22.7073956,68.4907 26.9403178,69.6621576 29.8037844,67.2753441 C32.1631289,65.3093271 51.6416511,47.0024797 53.1284511,45.6046322 L54.6388511,47.4101068 L29.5087844,72.1311237 C29.5087844,72.1311237 33.6676289,72.9526492 36.4825844,70.0848356 C38.2158733,68.3182424 54.0678622,50.0151576 55.4668178,48.3997 L56.92674,50.1462254 L37.1722289,73.6437339 C37.1722289,73.6437339 41.26814,74.6402254 43.77564,71.1421576 C45.0369289,69.3837169 56.8716733,52.5286492 57.8064956,51.1972763 L58.7531178,49.9687508 L45.7921289,34.2782424 Z" id="Fill-22" fill="#676C73" mask="url(#mask-4)"></path>
                </g>
            </g>
        </g>
    </g>
</svg>