<svg xmlns="http://www.w3.org/2000/svg" viewBox="0 0 25 24.93"><defs><style>.cls-1{fill:#949493;}</style></defs><title>Linkedin</title><g id="Layer_2" data-name="Layer 2"><g id="Layer_1-2" data-name="Layer 1"><path class="cls-1" d="M23.06,0H1.87A1.85,1.85,0,0,0,0,1.8V23.13a1.85,1.85,0,0,0,1.87,1.8H23.13A1.85,1.85,0,0,0,25,23.13V1.8A2,2,0,0,0,23.06,0ZM7.41,21.26H3.67V9.35H7.34V21.26ZM5.54,7.69A2.17,2.17,0,0,1,3.39,5.54,2.1,2.1,0,0,1,5.54,3.46,2.16,2.16,0,0,1,7.69,5.61,2.1,2.1,0,0,1,5.54,7.69ZM21.26,21.26H17.59V15.44c0-1.38,0-3.18-1.94-3.18s-2.21,1.52-2.21,3v5.89H9.7V9.35h3.53v1.59h.07A3.87,3.87,0,0,1,16.83,9c3.74,0,4.43,2.5,4.43,5.68Z"/></g></g></svg>