<svg xmlns="http://www.w3.org/2000/svg" viewBox="0 0 18.25 15"><defs><style>.cls-1{fill:#949493;}</style></defs><title>Twitter</title><g id="Layer_2" data-name="Layer 2"><g id="Layer_1-2" data-name="Layer 1"><path class="cls-1" d="M5.79,15A10.69,10.69,0,0,0,16.56,4.23V3.74a7.66,7.66,0,0,0,1.89-2,7.94,7.94,0,0,1-2.18.6A3.87,3.87,0,0,0,17.94.28a7.76,7.76,0,0,1-2.41.92A3.74,3.74,0,0,0,12.77,0,3.79,3.79,0,0,0,9,3.79a4.12,4.12,0,0,0,.1.86,10.72,10.72,0,0,1-7.8-4A3.79,3.79,0,0,0,2.45,5.75,3.78,3.78,0,0,1,.74,5.28v0A3.79,3.79,0,0,0,3.77,9a3.7,3.7,0,0,1-1,.14,4.17,4.17,0,0,1-.71-.07A3.78,3.78,0,0,0,5.6,11.74,7.61,7.61,0,0,1,.9,13.36a6.79,6.79,0,0,1-.9,0A10.8,10.8,0,0,0,5.79,15"/></g></g></svg>